<svg xmlns="http://www.w3.org/2000/svg" width="21.979" height="22.021" viewBox="0 0 21.979 22.021">
  <path id="Shape_406" data-name="Shape 406" d="M1113.895,1487.363l-.84-.844a9.035,9.035,0,0,1,5.93,8.028h2.005l-3.367,3.373-3.367-3.373h1.936a6.247,6.247,0,0,0-4.072-5.4l1.776-1.78Zm1.952,9.761a6.237,6.237,0,0,1-5.394,4.079v-1.939l-3.367,3.373,3.367,3.374V1504a9.019,9.019,0,0,0,8.012-5.943l-.842.844-1.776-1.78Zm-7.967,3.734a6.245,6.245,0,0,1-4.071-5.4h1.935l-3.367-3.374-3.367,3.374h2.005a9.038,9.038,0,0,0,5.932,8.027l-.842-.843,1.776-1.78Zm-3.726-7.983a6.238,6.238,0,0,1,5.394-4.079v1.939l3.367-3.373-3.367-3.373V1486a9.025,9.025,0,0,0-8.012,5.943l.842-.843,1.776,1.779Zm1.688,2.124a4.158,4.158,0,1,0,4.158-4.166A4.161,4.161,0,0,0,1105.842,1495Z" transform="translate(-1099.01 -1483.99)" fill="#a1b1bc"/>
</svg>
