<svg xmlns="http://www.w3.org/2000/svg" width="17.999" height="18" viewBox="0 0 17.999 18">
  <path id="Shape_403" data-name="Shape 403" d="M801,1499.5l4.5,4.5H801Zm11.259-13.123c-.879.878-.166,3.015,1.592,4.772s3.894,2.47,4.772,1.591.166-3.016-1.591-4.773S813.138,1485.5,812.259,1486.377Zm2.573,6.975-8.141,8.14,1.591,1.593,8.89-8.891A5.814,5.814,0,0,1,814.832,1493.352Zm-1.776-1.406a10.007,10.007,0,0,1-.75-.84l-8,8,1.591,1.591,8-8A9.918,9.918,0,0,1,813.056,1491.946Zm-2.248-4.117-8.889,8.891,1.591,1.59,8.141-8.14A11.361,11.361,0,0,1,810.808,1487.828Z" transform="translate(-801 -1486.001)" fill="#a1b1bc"/>
</svg>
