<svg xmlns="http://www.w3.org/2000/svg" width="18.001" height="17" viewBox="0 0 18.001 17">
  <path id="Shape_371" data-name="Shape 371" d="M1410,1496.067a1.111,1.111,0,0,1-.719-.263,1.138,1.138,0,0,1-.144-1.6l5.624-6.8a1.119,1.119,0,0,1,1.585-.145,1.139,1.139,0,0,1,.144,1.6l-5.626,6.8A1.121,1.121,0,0,1,1410,1496.067Zm9-1.133v1.133a1.129,1.129,0,0,1-1.125,1.134l-1.125,6.8h-13.5l-1.125-6.8a1.129,1.129,0,0,1-1.125-1.134v-1.133a1.128,1.128,0,0,1,1.125-1.133h6.616l-.037.045a1.711,1.711,0,0,0,.216,2.395,1.682,1.682,0,0,0,2.377-.218l1.838-2.222h4.741a1.129,1.129,0,0,1,1.125,1.133Zm-12.937,3.967a.563.563,0,1,0-1.125,0v3.4a.563.563,0,1,0,1.125,0Zm2.25,0a.563.563,0,1,0-1.125,0v3.4a.563.563,0,1,0,1.125,0Zm2.25,0a.563.563,0,1,0-1.125,0v3.4a.563.563,0,1,0,1.125,0Zm2.25,0a.563.563,0,1,0-1.125,0v3.4a.563.563,0,1,0,1.125,0Zm2.25,0a.563.563,0,1,0-1.125,0v3.4a.563.563,0,1,0,1.125,0Z" transform="translate(-1401 -1487)" fill="#a1b1bc"/>
</svg>
