<svg xmlns="http://www.w3.org/2000/svg" xmlns:xlink="http://www.w3.org/1999/xlink" width="25.01" height="24.99" viewBox="0 0 25.01 24.99">
  <defs>
    <filter id="dribbble" x="0" y="0" width="25.01" height="24.99" filterUnits="userSpaceOnUse">
      <feOffset dy="1" input="SourceAlpha"/>
      <feGaussianBlur stdDeviation="0.5" result="blur"/>
      <feFlood flood-color="#000001" flood-opacity="0.251"/>
      <feComposite operator="in" in2="blur"/>
      <feComposite in="SourceGraphic"/>
    </filter>
    <linearGradient id="linear-gradient" x1="0.5" y1="1" x2="0.5" gradientUnits="objectBoundingBox">
      <stop offset="0" stop-color="#fff" stop-opacity="0"/>
      <stop offset="1" stop-color="#fff"/>
    </linearGradient>
  </defs>
  <g id="dribbble-2" data-name="dribbble" transform="translate(-606.495 -10186.505)">
    <g transform="matrix(1, 0, 0, 1, 606.5, 10186.5)" filter="url(#dribbble)">
      <path id="dribbble-3" data-name="dribbble" d="M619,10187a11,11,0,1,0,11,11A11,11,0,0,0,619,10187Zm9.128,10.962a17.493,17.493,0,0,0-3.928-.479,14.223,14.223,0,0,0-2.751.265c-.265-.663-.536-1.286-.809-1.877a13.437,13.437,0,0,0,5.294-3.793A9.069,9.069,0,0,1,628.128,10197.967Zm-3.2-6.888a11.764,11.764,0,0,1-4.9,3.528,30.03,30.03,0,0,0-3.44-5.4,9.035,9.035,0,0,1,8.344,1.867Zm-9.75-1.354a27.077,27.077,0,0,1,3.511,5.356,25.57,25.57,0,0,1-7.549,1.1c-.478,0-.844-.014-1.086-.025A9.15,9.15,0,0,1,615.181,10189.726ZM609.87,10198c0-.151.015-.3.023-.446.259.014.687.03,1.251.03a27.262,27.262,0,0,0,8.177-1.217q.38.814.752,1.729a13.614,13.614,0,0,0-5.171,2.965,14.525,14.525,0,0,0-2.6,3.117A9.071,9.071,0,0,1,609.87,10198Zm3.487,7.157.07-.123a12.846,12.846,0,0,1,7.151-5.628,43.675,43.675,0,0,1,1.9,7.023,9.088,9.088,0,0,1-9.123-1.272Zm10.427.6a44.933,44.933,0,0,0-1.829-6.673,12.988,12.988,0,0,1,2.246-.19,16.247,16.247,0,0,1,3.814.49A9.122,9.122,0,0,1,623.783,10205.756Z" transform="translate(-606.5 -10186.5)" fill="rgba(255,255,255,0.4)"/>
    </g>
    <path id="Gradient_Overlay" data-name="Gradient Overlay" d="M619,10187a11,11,0,1,0,11,11A11,11,0,0,0,619,10187Zm9.128,10.962a17.493,17.493,0,0,0-3.928-.479,14.223,14.223,0,0,0-2.751.265c-.265-.663-.536-1.286-.809-1.877a13.437,13.437,0,0,0,5.294-3.793A9.069,9.069,0,0,1,628.128,10197.967Zm-3.2-6.888a11.764,11.764,0,0,1-4.9,3.528,30.03,30.03,0,0,0-3.44-5.4,9.035,9.035,0,0,1,8.344,1.867Zm-9.75-1.354a27.077,27.077,0,0,1,3.511,5.356,25.57,25.57,0,0,1-7.549,1.1c-.478,0-.844-.014-1.086-.025A9.15,9.15,0,0,1,615.181,10189.726ZM609.87,10198c0-.151.015-.3.023-.446.259.014.687.03,1.251.03a27.262,27.262,0,0,0,8.177-1.217q.38.814.752,1.729a13.614,13.614,0,0,0-5.171,2.965,14.525,14.525,0,0,0-2.6,3.117A9.071,9.071,0,0,1,609.87,10198Zm3.487,7.157.07-.123a12.846,12.846,0,0,1,7.151-5.628,43.675,43.675,0,0,1,1.9,7.023,9.088,9.088,0,0,1-9.123-1.272Zm10.427.6a44.933,44.933,0,0,0-1.829-6.673,12.988,12.988,0,0,1,2.246-.19,16.247,16.247,0,0,1,3.814.49A9.122,9.122,0,0,1,623.783,10205.756Z" opacity="0.5" fill="url(#linear-gradient)"/>
  </g>
</svg>
