<svg xmlns="http://www.w3.org/2000/svg" xmlns:xlink="http://www.w3.org/1999/xlink" width="25.004" height="23.999" viewBox="0 0 25.004 23.999">
  <defs>
    <filter id="linkedin" x="0" y="0" width="25.004" height="23.999" filterUnits="userSpaceOnUse">
      <feOffset dy="1" input="SourceAlpha"/>
      <feGaussianBlur stdDeviation="0.5" result="blur"/>
      <feFlood flood-color="#000001" flood-opacity="0.251"/>
      <feComposite operator="in" in2="blur"/>
      <feComposite in="SourceGraphic"/>
    </filter>
    <linearGradient id="linear-gradient" x1="7.135" y1="35.716" x2="7.135" y2="-485.165" gradientUnits="objectBoundingBox">
      <stop offset="0" stop-color="#fff" stop-opacity="0"/>
      <stop offset="1" stop-color="#fff"/>
    </linearGradient>
  </defs>
  <g id="linkedin-2" data-name="linkedin" transform="translate(-801.5 -10187.501)">
    <g transform="matrix(1, 0, 0, 1, 801.5, 10187.5)" filter="url(#linkedin)">
      <path id="linkedin-3" data-name="linkedin" d="M803,10209v-14h5v14Zm16.971-7.22c0-2.683-1-3.052-2.075-3.052a3.044,3.044,0,0,0-2.734,1.643,2.8,2.8,0,0,0-.156,1.094V10209h-5.029c0-.113.061-12.739,0-13.989h5.029v2.411a5.4,5.4,0,0,1,4.566-2.414,5.134,5.134,0,0,1,3.879,1.573,6.755,6.755,0,0,1,1.553,4.684V10209l-5.032,0ZM803,10190.5a2.5,2.5,0,1,1,2.5,2.5A2.5,2.5,0,0,1,803,10190.5Z" transform="translate(-801.5 -10187.5)" fill="rgba(255,255,255,0.4)"/>
    </g>
    <path id="Gradient_Overlay" data-name="Gradient Overlay" d="M803,10209v-14h5v14Zm16.971-7.22c0-2.683-1-3.052-2.075-3.052a3.044,3.044,0,0,0-2.734,1.643,2.8,2.8,0,0,0-.156,1.094V10209h-5.029c0-.113.061-12.739,0-13.989h5.029v2.411a5.4,5.4,0,0,1,4.566-2.414,5.134,5.134,0,0,1,3.879,1.573,6.755,6.755,0,0,1,1.553,4.684V10209l-5.032,0ZM803,10190.5a2.5,2.5,0,1,1,2.5,2.5A2.5,2.5,0,0,1,803,10190.5Z" opacity="0.5" fill="url(#linear-gradient)"/>
  </g>
</svg>
