<svg xmlns="http://www.w3.org/2000/svg" xmlns:xlink="http://www.w3.org/1999/xlink" width="25.002" height="25" viewBox="0 0 25.002 25">
  <defs>
    <filter id="skype" x="0" y="0" width="25.002" height="25" filterUnits="userSpaceOnUse">
      <feOffset dy="1" input="SourceAlpha"/>
      <feGaussianBlur stdDeviation="0.5" result="blur"/>
      <feFlood flood-color="#000001" flood-opacity="0.251"/>
      <feComposite operator="in" in2="blur"/>
      <feComposite in="SourceGraphic"/>
    </filter>
    <linearGradient id="linear-gradient" x1="0.5" y1="1" x2="0.5" gradientUnits="objectBoundingBox">
      <stop offset="0" stop-color="#fff" stop-opacity="0"/>
      <stop offset="1" stop-color="#fff"/>
    </linearGradient>
  </defs>
  <g id="skype-2" data-name="skype" transform="translate(-508.494 -10186.495)">
    <g transform="matrix(1, 0, 0, 1, 508.49, 10186.5)" filter="url(#skype)">
      <path id="skype-3" data-name="skype" d="M531.605,10198.11a10.5,10.5,0,0,0-12.289-10.191,6.1,6.1,0,0,0-9.323,5.076,5.915,5.915,0,0,0,.837,3.035,10.206,10.206,0,0,0-.212,2.08,10.42,10.42,0,0,0,10.494,10.345,10.826,10.826,0,0,0,1.921-.172,6.136,6.136,0,0,0,2.876.712,6.044,6.044,0,0,0,6.087-6,5.9,5.9,0,0,0-.634-2.665A10.243,10.243,0,0,0,531.605,10198.11Zm-7.4,6.335a8.505,8.505,0,0,1-3.2.555,7.941,7.941,0,0,1-3.671-.759,4.79,4.79,0,0,1-1.688-1.473,3.174,3.174,0,0,1-.656-1.818,1.248,1.248,0,0,1,.427-.951,1.517,1.517,0,0,1,1.071-.393,1.371,1.371,0,0,1,.9.309,2.308,2.308,0,0,1,.6.863,5.016,5.016,0,0,0,.589,1.024,2.264,2.264,0,0,0,.859.656,4.338,4.338,0,0,0,3.555-.27,1.472,1.472,0,0,0,.759-1.257,1.229,1.229,0,0,0-.4-.955,2.8,2.8,0,0,0-1.094-.594c-.466-.143-1.1-.3-1.88-.458a15.251,15.251,0,0,1-2.687-.79,4.436,4.436,0,0,1-1.761-1.266,3.107,3.107,0,0,1-.664-2.02,3.234,3.234,0,0,1,.7-2.039,4.339,4.339,0,0,1,1.991-1.358,8.877,8.877,0,0,1,3.008-.467,8.31,8.31,0,0,1,2.393.31,5.312,5.312,0,0,1,1.693.832,3.6,3.6,0,0,1,1,1.1,2.4,2.4,0,0,1,.32,1.149,1.354,1.354,0,0,1-.421.971,1.416,1.416,0,0,1-1.053.434,1.306,1.306,0,0,1-.884-.271,3.258,3.258,0,0,1-.611-.8,3.357,3.357,0,0,0-.92-1.118,2.921,2.921,0,0,0-1.713-.39,3.251,3.251,0,0,0-1.776.432,1.151,1.151,0,0,0-.636.965.88.88,0,0,0,.205.586,1.811,1.811,0,0,0,.611.456,4.529,4.529,0,0,0,.826.317c.285.076.763.191,1.418.341.83.174,1.592.37,2.267.583a7.34,7.34,0,0,1,1.754.787,3.452,3.452,0,0,1,1.156,1.2,3.529,3.529,0,0,1,.417,1.774,3.78,3.78,0,0,1-.718,2.25A4.69,4.69,0,0,1,524.208,10204.445Z" transform="translate(-508.49 -10186.5)" fill="rgba(255,255,255,0.4)"/>
    </g>
    <path id="Gradient_Overlay" data-name="Gradient Overlay" d="M531.605,10198.11a10.5,10.5,0,0,0-12.289-10.191,6.1,6.1,0,0,0-9.323,5.076,5.915,5.915,0,0,0,.837,3.035,10.206,10.206,0,0,0-.212,2.08,10.42,10.42,0,0,0,10.494,10.345,10.826,10.826,0,0,0,1.921-.172,6.136,6.136,0,0,0,2.876.712,6.044,6.044,0,0,0,6.087-6,5.9,5.9,0,0,0-.634-2.665A10.243,10.243,0,0,0,531.605,10198.11Zm-7.4,6.335a8.505,8.505,0,0,1-3.2.555,7.941,7.941,0,0,1-3.671-.759,4.79,4.79,0,0,1-1.688-1.473,3.174,3.174,0,0,1-.656-1.818,1.248,1.248,0,0,1,.427-.951,1.517,1.517,0,0,1,1.071-.393,1.371,1.371,0,0,1,.9.309,2.308,2.308,0,0,1,.6.863,5.016,5.016,0,0,0,.589,1.024,2.264,2.264,0,0,0,.859.656,4.338,4.338,0,0,0,3.555-.27,1.472,1.472,0,0,0,.759-1.257,1.229,1.229,0,0,0-.4-.955,2.8,2.8,0,0,0-1.094-.594c-.466-.143-1.1-.3-1.88-.458a15.251,15.251,0,0,1-2.687-.79,4.436,4.436,0,0,1-1.761-1.266,3.107,3.107,0,0,1-.664-2.02,3.234,3.234,0,0,1,.7-2.039,4.339,4.339,0,0,1,1.991-1.358,8.877,8.877,0,0,1,3.008-.467,8.31,8.31,0,0,1,2.393.31,5.312,5.312,0,0,1,1.693.832,3.6,3.6,0,0,1,1,1.1,2.4,2.4,0,0,1,.32,1.149,1.354,1.354,0,0,1-.421.971,1.416,1.416,0,0,1-1.053.434,1.306,1.306,0,0,1-.884-.271,3.258,3.258,0,0,1-.611-.8,3.357,3.357,0,0,0-.92-1.118,2.921,2.921,0,0,0-1.713-.39,3.251,3.251,0,0,0-1.776.432,1.151,1.151,0,0,0-.636.965.88.88,0,0,0,.205.586,1.811,1.811,0,0,0,.611.456,4.529,4.529,0,0,0,.826.317c.285.076.763.191,1.418.341.83.174,1.592.37,2.267.583a7.34,7.34,0,0,1,1.754.787,3.452,3.452,0,0,1,1.156,1.2,3.529,3.529,0,0,1,.417,1.774,3.78,3.78,0,0,1-.718,2.25A4.69,4.69,0,0,1,524.208,10204.445Z" opacity="0.5" fill="url(#linear-gradient)"/>
  </g>
</svg>
