<svg xmlns="http://www.w3.org/2000/svg" xmlns:xlink="http://www.w3.org/1999/xlink" width="25" height="21" viewBox="0 0 25 21">
  <defs>
    <filter id="twitter" x="0" y="0" width="25" height="21" filterUnits="userSpaceOnUse">
      <feOffset dy="1" input="SourceAlpha"/>
      <feGaussianBlur stdDeviation="0.5" result="blur"/>
      <feFlood flood-color="#000001" flood-opacity="0.251"/>
      <feComposite operator="in" in2="blur"/>
      <feComposite in="SourceGraphic"/>
    </filter>
    <linearGradient id="linear-gradient" x1="0.5" y1="1" x2="0.5" gradientUnits="objectBoundingBox">
      <stop offset="0" stop-color="#fff" stop-opacity="0"/>
      <stop offset="1" stop-color="#fff"/>
    </linearGradient>
  </defs>
  <g id="twitter-2" data-name="twitter" transform="translate(-1386.5 -10188.501)">
    <g transform="matrix(1, 0, 0, 1, 1386.5, 10188.5)" filter="url(#twitter)">
      <path id="twitter-3" data-name="twitter" d="M1402.964,10189a4.617,4.617,0,0,1,3.568,1.428,7.25,7.25,0,0,0,2.312-.787l.562-.31a4.546,4.546,0,0,1-1.464,2.136,2.164,2.164,0,0,1-.5.354v.011a8.411,8.411,0,0,0,2.555-.7v.011a7.337,7.337,0,0,1-1.531,1.771l-.7.564a13.135,13.135,0,0,1-.209,2.922c-1.127,5.105-4.114,8.573-8.842,10.059a13.422,13.422,0,0,1-6.386.267,16.466,16.466,0,0,1-2.654-.875,10.705,10.705,0,0,1-1.277-.664l-.4-.243a7.425,7.425,0,0,0,1.443.056c.444-.072.879-.055,1.288-.145a9.151,9.151,0,0,0,2.709-.985,5.009,5.009,0,0,0,1.222-.808,3.8,3.8,0,0,1-1.343-.243,4.551,4.551,0,0,1-2.863-2.91c.442.049,1.717.165,2.015-.089a3.282,3.282,0,0,1-1.475-.6,4.384,4.384,0,0,1-2.125-3.9l.462.222a5.023,5.023,0,0,0,.947.266,1.344,1.344,0,0,0,.617.056h-.022c-.227-.268-.6-.444-.826-.731a4.673,4.673,0,0,1-1.013-4.127,5.336,5.336,0,0,1,.484-1.185l.022.012a2.777,2.777,0,0,0,.407.477,8.32,8.32,0,0,0,1.343,1.293,13.251,13.251,0,0,0,5.517,2.69,8.636,8.636,0,0,0,2.026.266,4.257,4.257,0,0,1,.022-2.136,4.476,4.476,0,0,1,2.554-3.055,5.406,5.406,0,0,1,1-.31Z" transform="translate(-1386.5 -10188.5)" fill="rgba(255,255,255,0.4)"/>
    </g>
    <path id="Gradient_Overlay" data-name="Gradient Overlay" d="M1402.964,10189a4.617,4.617,0,0,1,3.568,1.428,7.25,7.25,0,0,0,2.312-.787l.562-.31a4.546,4.546,0,0,1-1.464,2.136,2.164,2.164,0,0,1-.5.354v.011a8.411,8.411,0,0,0,2.555-.7v.011a7.337,7.337,0,0,1-1.531,1.771l-.7.564a13.135,13.135,0,0,1-.209,2.922c-1.127,5.105-4.114,8.573-8.842,10.059a13.422,13.422,0,0,1-6.386.267,16.466,16.466,0,0,1-2.654-.875,10.705,10.705,0,0,1-1.277-.664l-.4-.243a7.425,7.425,0,0,0,1.443.056c.444-.072.879-.055,1.288-.145a9.151,9.151,0,0,0,2.709-.985,5.009,5.009,0,0,0,1.222-.808,3.8,3.8,0,0,1-1.343-.243,4.551,4.551,0,0,1-2.863-2.91c.442.049,1.717.165,2.015-.089a3.282,3.282,0,0,1-1.475-.6,4.384,4.384,0,0,1-2.125-3.9l.462.222a5.023,5.023,0,0,0,.947.266,1.344,1.344,0,0,0,.617.056h-.022c-.227-.268-.6-.444-.826-.731a4.673,4.673,0,0,1-1.013-4.127,5.336,5.336,0,0,1,.484-1.185l.022.012a2.777,2.777,0,0,0,.407.477,8.32,8.32,0,0,0,1.343,1.293,13.251,13.251,0,0,0,5.517,2.69,8.636,8.636,0,0,0,2.026.266,4.257,4.257,0,0,1,.022-2.136,4.476,4.476,0,0,1,2.554-3.055,5.406,5.406,0,0,1,1-.31Z" opacity="0.5" fill="url(#linear-gradient)"/>
  </g>
</svg>
