<svg xmlns="http://www.w3.org/2000/svg" xmlns:xlink="http://www.w3.org/1999/xlink" width="25.013" height="23.001" viewBox="0 0 25.013 23.001">
  <defs>
    <filter id="windows_live" x="0" y="0" width="25.013" height="23.001" filterUnits="userSpaceOnUse">
      <feOffset dy="1" input="SourceAlpha"/>
      <feGaussianBlur stdDeviation="0.5" result="blur"/>
      <feFlood flood-color="#000001" flood-opacity="0.251"/>
      <feComposite operator="in" in2="blur"/>
      <feComposite in="SourceGraphic"/>
    </filter>
    <linearGradient id="linear-gradient" x1="0.5" y1="1" x2="0.5" gradientUnits="objectBoundingBox">
      <stop offset="0" stop-color="#fff" stop-opacity="0"/>
      <stop offset="1" stop-color="#fff"/>
    </linearGradient>
  </defs>
  <g id="windows_live-2" data-name="windows live" transform="translate(-1483.502 -10187.498)">
    <g transform="matrix(1, 0, 0, 1, 1483.5, 10187.5)" filter="url(#windows_live)">
      <path id="windows_live-3" data-name="windows live" d="M1489.512,10188.911a10.363,10.363,0,0,1,3.791-.913h.023a6.974,6.974,0,0,1,1.639.19,12.018,12.018,0,0,1,2.475,1.164v0c-.419,1.472-1.657,5.832-2.074,7.282a6.747,6.747,0,0,0-3.911-1.435h-.056a10.241,10.241,0,0,0-3.9.943Zm-.682,15.355a10.049,10.049,0,0,0-3.829.895l2.037-7.254c.232-.1.459-.186.678-.268a11.692,11.692,0,0,1,2.962-.671c.133-.012.264-.02.4-.02a6.528,6.528,0,0,1,2.975.817c.325.18.631.375.936.57-.269.948-1.69,5.93-2.109,7.383A6.822,6.822,0,0,0,1488.831,10204.267Zm13.667,2.73a10.773,10.773,0,0,1-4.166,1,10.042,10.042,0,0,1-4.159-1.5l2.031-7.244a6.777,6.777,0,0,0,4.4,1.473,11.134,11.134,0,0,0,3.847-.752Zm2.487-8.948-.012,0v.013a8.926,8.926,0,0,1-3.9.964,7.685,7.685,0,0,1-4.38-1.406c-.007-.006-.016-.01-.021-.018l2.058-7.312a6.909,6.909,0,0,0,4.354,1.494,9.614,9.614,0,0,0,3.935-.917Z" transform="translate(-1483.5 -10187.5)" fill="rgba(255,255,255,0.4)"/>
    </g>
    <path id="Gradient_Overlay" data-name="Gradient Overlay" d="M1489.512,10188.911a10.363,10.363,0,0,1,3.791-.913h.023a6.974,6.974,0,0,1,1.639.19,12.018,12.018,0,0,1,2.475,1.164v0c-.419,1.472-1.657,5.832-2.074,7.282a6.747,6.747,0,0,0-3.911-1.435h-.056a10.241,10.241,0,0,0-3.9.943Zm-.682,15.355a10.049,10.049,0,0,0-3.829.895l2.037-7.254c.232-.1.459-.186.678-.268a11.692,11.692,0,0,1,2.962-.671c.133-.012.264-.02.4-.02a6.528,6.528,0,0,1,2.975.817c.325.18.631.375.936.57-.269.948-1.69,5.93-2.109,7.383A6.822,6.822,0,0,0,1488.831,10204.267Zm13.667,2.73a10.773,10.773,0,0,1-4.166,1,10.042,10.042,0,0,1-4.159-1.5l2.031-7.244a6.777,6.777,0,0,0,4.4,1.473,11.134,11.134,0,0,0,3.847-.752Zm2.487-8.948-.012,0v.013a8.926,8.926,0,0,1-3.9.964,7.685,7.685,0,0,1-4.38-1.406c-.007-.006-.016-.01-.021-.018l2.058-7.312a6.909,6.909,0,0,0,4.354,1.494,9.614,9.614,0,0,0,3.935-.917Z" opacity="0.5" fill="url(#linear-gradient)"/>
  </g>
</svg>
